<?xml version="1.0" encoding="utf-8"?>
<!-- Generator: Adobe Illustrator 15.0.2, SVG Export Plug-In  -->
<!DOCTYPE svg PUBLIC "-//W3C//DTD SVG 1.1//EN" "http://www.w3.org/Graphics/SVG/1.1/DTD/svg11.dtd" [
	<!ENTITY ns_flows "http://ns.adobe.com/Flows/1.0/">
]>
<svg version="1.1"
	 xmlns="http://www.w3.org/2000/svg" xmlns:xlink="http://www.w3.org/1999/xlink" xmlns:a="http://ns.adobe.com/AdobeSVGViewerExtensions/3.0/"
	 x="0px" y="0px" width="25px" height="25px" viewBox="-2.441 -4.377 25 25"
	 overflow="visible" enable-background="new -2.441 -4.377 25 25" xml:space="preserve">
<defs>
</defs>
<path id="basket-6-icon_1_" fill="#FFFFFF" d="M9.529,6.25C9.012,5.933,8.85,5.255,9.167,4.739l2.568-4.215
	c0.324-0.528,1.003-0.673,1.511-0.362c0.517,0.317,0.68,0.995,0.362,1.511l-2.569,4.214C10.715,6.417,10.036,6.562,9.529,6.25z
	 M20.117,6.173v1.953H19.58c-0.449,0-0.857,0.256-1.055,0.659l-3.633,7.461H5.241L1.592,8.783C1.396,8.381,0.987,8.126,0.539,8.126
	H0V6.173h7.69c0.372,1.049,1.356,1.705,2.413,1.705c1.608,0,2.204-1.254,2.479-1.705H20.117L20.117,6.173z M7.971,10.031
	c0-0.337-0.273-0.61-0.61-0.61s-0.61,0.273-0.61,0.61v3.494c0,0.337,0.273,0.609,0.61,0.609s0.61-0.272,0.61-0.609V10.031z
	 M10.705,10.031c0-0.337-0.273-0.61-0.61-0.61s-0.61,0.273-0.61,0.61v3.494c0,0.337,0.273,0.609,0.61,0.609s0.61-0.272,0.61-0.609
	V10.031z M13.436,10.031c0-0.337-0.273-0.61-0.609-0.61c-0.338,0-0.611,0.273-0.611,0.61v3.494c0,0.337,0.273,0.609,0.611,0.609
	c0.336,0,0.609-0.272,0.609-0.609V10.031z"/>
</svg>
