<?xml version="1.0" encoding="utf-8"?>
<!-- Generator: Adobe Illustrator 15.0.2, SVG Export Plug-In  -->
<!DOCTYPE svg PUBLIC "-//W3C//DTD SVG 1.1//EN" "http://www.w3.org/Graphics/SVG/1.1/DTD/svg11.dtd" [
	<!ENTITY ns_flows "http://ns.adobe.com/Flows/1.0/">
]>
<svg version="1.1"
	 xmlns="http://www.w3.org/2000/svg" xmlns:xlink="http://www.w3.org/1999/xlink" xmlns:a="http://ns.adobe.com/AdobeSVGViewerExtensions/3.0/"
	 x="0px" y="0px" width="40px" height="40px" viewBox="-117.358 -24.102 396 205"
	 overflow="visible" enable-background="new -117.358 -24.102 396 205" xml:space="preserve">
<defs>
</defs>
<path id="path2219_1_" fill="#404142" d="M88.623,32.629l0.424-1.301l0.39-1.204l0.293-1.106l0.228-1.041l0.162-0.943l0.131-0.911
	l0.098-0.878l0.032-0.846l-0.032-0.781l-0.033-0.781l-0.064-0.781l-0.131-0.748l-0.13-0.749l-0.163-0.715l-0.162-0.716l-0.228-0.683
	l-0.261-0.683l-0.26-0.683l-0.325-0.651l-0.325-0.65l-0.357-0.618l-0.391-0.618l-0.422-0.618l-0.456-0.585l-0.487-0.553
	l-0.455-0.521l-0.521-0.488l-0.487-0.456l-0.521-0.423l-0.521-0.39l-0.521-0.358l-0.553-0.293l-0.553-0.26l-0.553-0.26l-0.586-0.195
	l-0.585-0.163l-0.585-0.13l-0.586-0.098l-0.617-0.033L77.89,8.686l-0.779,0.032l-0.748,0.098l-0.358,0.065l-0.325,0.065
	l-0.358,0.098l-0.325,0.098l-0.292,0.13l-0.325,0.13l-0.293,0.163l-0.292,0.163l-0.26,0.195l-0.26,0.195l-0.26,0.195l-0.26,0.228
	l-0.228,0.228l-0.228,0.26l-0.195,0.26l-0.195,0.26l-0.163,0.292l-0.163,0.293l-0.163,0.292l-0.098,0.293l-0.13,0.325l-0.098,0.325
	l-0.098,0.358l-0.065,0.358l-0.065,0.716l-0.032,0.781v0.488l0.032,0.488l0.065,0.455l0.098,0.488l0.13,0.488l0.13,0.488
	l0.163,0.488l0.195,0.455l0.228,0.488l0.228,0.521l0.292,0.521l0.292,0.521l0.325,0.521l0.358,0.553l0.39,0.553l0.423,0.585
	l0.716,0.586l0.78,0.585l0.781,0.585l0.779,0.585l0.846,0.553l0.846,0.553l0.879,0.586l0.91,0.553l0.91,0.553l0.943,0.553
	l0.977,0.553l0.975,0.553l1.009,0.553l1.008,0.521l1.041,0.553L88.623,32.629z M77.89,69.096l-0.845-5.368l0.878-1.952l0.812-1.887
	l0.781-1.789l0.748-1.724l0.683-1.626l0.65-1.529l0.618-1.464l0.586-1.398l0.553-1.334l0.52-1.301l0.521-1.301l0.521-1.269
	l0.488-1.269l0.487-1.236l0.487-1.236l0.456-1.236l-1.106-0.585l-1.17-0.618l-1.171-0.65l-1.269-0.683l-1.269-0.716l-1.333-0.748
	l-1.366-0.781l-1.398-0.813l-1.463-0.846l-1.496-0.878l-1.561-0.878l-1.561-0.943l-1.626-0.976l-1.691-1.008l-1.691-1.041
	l-1.756-1.074l-2.83-1.691l-2.732-1.626l-2.602-1.497l-2.504-1.398l-2.406-1.269l-2.309-1.171l-2.179-1.041l-2.082-0.943
	l-1.984-0.846l-1.886-0.715l-0.911-0.326l-0.878-0.292l-0.846-0.26l-0.813-0.228l-0.813-0.228l-0.748-0.163l-0.748-0.163
	l-0.715-0.13l-0.716-0.097l-0.65-0.065l-0.65-0.032l-0.618-0.033l-1.008,0.033l-1.008,0.065l-1.008,0.098l-0.976,0.163l-0.943,0.195
	L25.4,13.5l-0.911,0.26l-0.878,0.325l-0.878,0.358l-0.878,0.391l-0.813,0.423l-0.846,0.488l-0.78,0.521l-0.781,0.585l-0.78,0.585
	l-0.716,0.651l-0.715,0.683l-0.683,0.683l-0.618,0.716l-0.553,0.716l-0.553,0.715l-0.488,0.749l-0.423,0.748l-0.39,0.781
	l-0.358,0.781l-0.292,0.813l-0.26,0.813l-0.195,0.813l-0.163,0.846l-0.098,0.878l-0.097,0.846v0.911v0.749l0.065,0.748l0.13,0.748
	l0.163,0.749l0.195,0.748l0.228,0.748l0.293,0.749l0.357,0.748l0.358,0.781l0.455,0.748l0.456,0.781l0.521,0.781l0.553,0.749
	l0.618,0.781l0.65,0.781l0.683,0.781l-0.292,1.008l-0.325,0.943l-0.358,0.878l-0.423,0.813l-0.423,0.748L14.7,47.854l-0.26,0.292
	l-0.26,0.325l-0.26,0.293l-0.26,0.26l-0.292,0.26l-0.26,0.228l-0.292,0.195l-0.293,0.228l-0.325,0.163l-0.325,0.195l-0.325,0.13
	l-0.325,0.163l-0.358,0.098l-0.357,0.13l-0.358,0.065l-0.358,0.097l-0.39,0.033l-0.39,0.065h-0.39l-0.391,0.033l-0.455-0.033
	l-0.456-0.032l-0.422-0.033l-0.391-0.098l-0.423-0.098l-0.39-0.13l-0.39-0.13l-0.358-0.163l-0.39-0.195L4.228,50L3.87,49.74
	l-0.325-0.228L3.22,49.22l-0.325-0.293l-0.292-0.325l-0.293-0.325l-0.292-0.358l-0.26-0.391l-0.228-0.39l-0.228-0.391l-0.228-0.423
	l-0.195-0.423l-0.163-0.456l-0.13-0.455l-0.163-0.488l-0.098-0.456l-0.098-0.52L0.13,43.006l-0.065-0.521l-0.032-0.521L0,41.412
	v-0.585v-0.585l0.033-0.586l0.065-0.618l0.065-0.618l0.098-0.618l0.13-0.618l0.13-0.651l0.163-0.683l0.195-0.65l0.228-0.683
	L1.333,33.8l0.228-0.716l0.585-1.431l0.65-1.497l0.748-1.529l0.781-1.497l0.845-1.496l0.943-1.497l0.976-1.464l1.041-1.464
	l1.105-1.464l1.204-1.432l0.715-0.846l0.715-0.813l0.716-0.781l0.748-0.78l0.748-0.716l0.748-0.716l0.748-0.683l0.781-0.65
	l0.78-0.651l0.781-0.585l0.78-0.585l0.813-0.553l0.813-0.521l0.813-0.521l0.813-0.456l0.846-0.455l0.845-0.423l0.846-0.391
	l0.846-0.39l0.846-0.326l0.878-0.325l0.846-0.293l0.878-0.228l0.878-0.26l0.878-0.195l0.911-0.163l0.878-0.163l0.911-0.13
	l0.911-0.065l0.911-0.097l0.911-0.033h0.943h0.748l0.748,0.033l0.781,0.065l0.748,0.065l0.748,0.098l0.78,0.098l0.748,0.163
	l0.781,0.163l0.748,0.163l0.78,0.195l0.748,0.228l0.781,0.26l0.78,0.26l0.748,0.293l0.781,0.292l0.748,0.326l0.813,0.358l0.78,0.39
	l0.846,0.423l0.878,0.488l0.878,0.488l0.91,0.521l0.943,0.585l0.943,0.585l2.016,1.301l2.114,1.464l2.179,1.594l2.342,1.757
	l-2.959-7.808l0.78-1.074l0.813-0.976l0.813-0.878l0.813-0.846l0.422-0.391l0.423-0.358l0.423-0.358l0.423-0.325l0.455-0.325
	l0.423-0.293l0.456-0.292l0.423-0.26l0.455-0.228l0.456-0.228l0.455-0.228l0.488-0.195l0.488-0.163l0.488-0.195l0.488-0.13
	l0.488-0.13l0.52-0.13l0.521-0.097l0.521-0.098l0.52-0.065l1.106-0.098l1.105-0.033l1.009,0.033l0.943,0.065l0.942,0.13l0.943,0.163
	l0.878,0.228l0.879,0.26l0.877,0.325l0.846,0.358l0.813,0.423l0.78,0.456l0.781,0.521l0.748,0.553l0.748,0.618l0.715,0.651
	l0.684,0.715l0.65,0.749l0.65,0.813l0.585,0.813l0.553,0.846l0.521,0.878l0.455,0.878l0.455,0.911l0.391,0.976l0.325,0.976
	l0.325,0.976l0.26,1.041l0.229,1.041l0.162,1.074l0.162,1.106l0.098,1.139l0.065,1.139l0.032,1.204l-0.032,0.976l-0.065,1.074
	l-0.129,1.139l-0.163,1.236l-0.098,0.684l-0.098,0.715l-0.163,0.813l-0.129,0.846l-0.195,0.943l-0.163,0.976l-0.228,1.073
	l-0.195,1.106l1.398,0.748l1.366,0.748l1.301,0.651l1.301,0.618l1.269,0.553l1.203,0.488l1.171,0.455l1.138,0.391l1.106,0.325
	l1.105,0.293l1.106,0.26l1.105,0.195l1.072,0.163l1.041,0.097l1.074,0.065l1.04,0.032l0.943-0.032l0.911-0.033l0.91-0.065
	l0.878-0.13l0.846-0.13l0.845-0.163l0.813-0.195l0.813-0.26l0.748-0.26l0.78-0.293l0.748-0.325l0.716-0.358l0.683-0.39l0.683-0.423
	l0.65-0.456l0.65-0.488l0.618-0.488l0.554-0.521l0.553-0.553l0.487-0.553l0.456-0.553l0.422-0.585l0.357-0.585l0.326-0.618
	l0.325-0.618l0.228-0.618l0.228-0.65l0.195-0.65l0.13-0.684l0.098-0.715l0.065-0.683v-0.716v-0.488l-0.065-0.521l-0.065-0.456
	l-0.098-0.488l-0.13-0.488l-0.163-0.488l-0.194-0.488l-0.228-0.455l-0.261-0.488l-0.26-0.455l-0.325-0.456l-0.325-0.456
	l-0.391-0.488l-0.391-0.456l-0.422-0.423l-0.455-0.456l-0.879-0.878l-0.78-0.813l-0.65-0.781l-0.521-0.716l-0.228-0.325
	l-0.195-0.325l-0.163-0.325l-0.129-0.293l-0.098-0.293l-0.098-0.292l-0.033-0.26l-0.032-0.26l0.032-0.716l0.033-0.716l0.064-0.715
	l0.131-0.684l0.129-0.65l0.131-0.65L123,9.011l0.227-0.618l0.229-0.618l0.293-0.585l0.292-0.585l0.325-0.553l0.391-0.553
	l0.391-0.521l0.39-0.521l0.456-0.488l0.487-0.488l0.487-0.456l0.488-0.423l0.521-0.39l0.521-0.358l0.553-0.325l0.553-0.293
	l0.553-0.26l0.585-0.228l0.619-0.195l0.617-0.163l0.618-0.13l0.65-0.13l0.683-0.065L134.577,0h0.716h0.683l0.684,0.065l0.65,0.065
	l0.65,0.13l0.617,0.13l0.619,0.163l0.584,0.195l0.586,0.228l0.553,0.26l0.553,0.293l0.553,0.325l0.521,0.358l0.487,0.39l0.487,0.423
	l0.488,0.456l0.455,0.488l0.423,0.488l0.391,0.521l0.39,0.521l0.358,0.553l0.292,0.586l0.293,0.585l0.261,0.618l0.26,0.618
	l0.195,0.651l0.195,0.683l0.13,0.683l0.13,0.683l0.098,0.716l0.065,0.748l0.064,0.748v0.749v0.65l-0.032,0.651l-0.065,0.618
	l-0.064,0.65l-0.098,0.618l-0.098,0.618l-0.13,0.65l-0.13,0.618l-0.195,0.651l-0.163,0.618l-0.228,0.618l-0.228,0.618l-0.261,0.651
	l-0.26,0.618l-0.293,0.618l-0.293,0.618l-0.324,0.618l-0.357,0.618l-0.358,0.618l-0.39,0.618l-0.391,0.585l-0.423,0.618
	l-0.456,0.585l-0.455,0.618l-0.487,0.585l-0.521,0.585l-0.521,0.618l-0.521,0.585l-1.139,1.139l-1.203,1.171l-0.846,0.748
	l-0.845,0.716l-0.846,0.715l-0.846,0.683l-0.878,0.651l-0.846,0.65l-0.878,0.585l-0.911,0.586l-0.878,0.585l-0.878,0.521
	l-0.911,0.521l-0.91,0.521l-0.91,0.456l-0.943,0.455l-0.91,0.423l-0.943,0.423l-0.943,0.358l-0.943,0.357l-0.943,0.325l-0.943,0.293
	L119,44.633l-0.943,0.26l-0.977,0.228l-0.975,0.195l-0.977,0.195l-0.976,0.163l-0.976,0.13l-1.008,0.098l-0.977,0.098l-1.008,0.065
	l-0.976,0.033h-1.008h-0.943l-0.943-0.065l-0.976-0.065l-1.008-0.097l-1.008-0.163l-1.041-0.163l-1.041-0.195l-1.073-0.228
	l-1.073-0.26l-1.105-0.293l-1.105-0.292l-1.106-0.358l-1.138-0.39l-1.139-0.391l-1.139-0.423l-1.17-0.456l-0.65,1.334l-0.684,1.366
	l-0.715,1.464l-0.717,1.464l-0.747,1.529l-0.78,1.594l-0.813,1.626l-0.813,1.692l-0.878,1.724l-0.845,1.756l-0.911,1.79
	l-0.911,1.822l-0.943,1.854l-0.942,1.919l-0.976,1.919L77.89,69.096z M73.858,74.171l4.032,1.334l0.684-1.302l0.65-1.236
	l0.684-1.204l0.715-1.171l0.684-1.106l0.715-1.073l0.716-1.009l0.716-0.976l0.715-0.911l0.748-0.911l0.715-0.813l0.781-0.813
	l0.748-0.716l0.748-0.716l0.78-0.65l0.78-0.618l0.781-0.553l0.812-0.521l0.813-0.488l0.845-0.456l0.879-0.423l0.878-0.39
	l0.911-0.358l0.91-0.292l0.943-0.293l0.943-0.228l0.975-0.195l1.009-0.195l1.009-0.098l1.04-0.098l1.041-0.065l1.073-0.032
	l1.365,0.032l1.334,0.098l1.334,0.163l1.268,0.195l1.269,0.26l1.235,0.325l1.203,0.391l1.172,0.423l0.553,0.26l0.585,0.228
	l0.553,0.293l0.554,0.293l0.553,0.292l0.52,0.325l0.553,0.326l0.521,0.325l1.008,0.748l1.008,0.781l0.943,0.846l0.943,0.911
	l0.91,0.976l0.813,0.976l0.78,1.009l0.748,1.041l0.65,1.073l0.618,1.106l0.553,1.139l0.487,1.139l0.423,1.204l0.391,1.204
	l0.293,1.269l0.26,1.269l0.229,1.301l0.129,1.333l0.098,1.367l0.033,1.398l-0.033,1.496l-0.098,1.497l-0.162,1.464l-0.195,1.432
	l-0.26,1.432l-0.357,1.398l-0.391,1.398l-0.423,1.366l-0.521,1.334l-0.585,1.334l-0.618,1.301l-0.683,1.302l-0.748,1.269
	l-0.813,1.269l-0.878,1.236l-0.943,1.203l-0.976,1.204l-1.041,1.171l-1.105,1.139l-1.171,1.105l-1.203,1.107l-1.269,1.072
	l-1.301,1.041l-1.398,1.009l-1.431,0.976l-1.464,0.977l-1.562,0.91l-1.594,0.912l-1.658,0.878l-1.691,0.846l-1.756,0.846
	l-1.821,0.813l-0.325,0.13l-0.423,0.163l-0.455,0.195l-0.553,0.227l-1.171,0.521l-1.139,0.488l-1.105,0.52l-1.073,0.521l-1.04,0.52
	l-0.977,0.521l-0.976,0.52l-0.911,0.521l-0.877,0.521l-0.846,0.521l-0.813,0.554l-0.78,0.52l-0.716,0.521l-0.683,0.553l-0.684,0.521
	l-0.617,0.553l-0.586,0.521l-0.52,0.553l-0.521,0.553l-0.455,0.554l-0.422,0.521l-0.424,0.553l-0.357,0.553l-0.293,0.554
	l-0.293,0.553l-0.227,0.554l-0.229,0.585l-0.162,0.554l-0.131,0.553l-0.097,0.553l-0.065,0.586v0.553v0.618l0.065,0.618l0.065,0.586
	l0.098,0.585l0.129,0.553l0.131,0.554l0.195,0.553l0.227,0.521l0.229,0.521l0.26,0.488l0.293,0.487l0.325,0.456l0.357,0.487
	l0.391,0.423l0.423,0.424l0.423,0.422l0.455,0.391l0.487,0.391l0.488,0.357l0.488,0.293l0.52,0.293l0.553,0.293l0.554,0.228
	l0.553,0.228l0.618,0.195l0.585,0.162l0.618,0.131l0.65,0.13l0.65,0.098l0.65,0.065l0.684,0.032h0.715h0.684l0.65-0.032l0.683-0.098
	l0.65-0.065l0.65-0.13l0.618-0.131l0.617-0.195l0.618-0.194l0.618-0.195l0.586-0.261l0.585-0.26l0.585-0.325l0.586-0.325
	l0.553-0.357l0.553-0.358l0.521-0.391l0.553-0.423l0.487-0.455l0.488-0.455l0.455-0.456l0.423-0.488l0.423-0.521l0.391-0.52
	l0.357-0.521l0.357-0.553l0.326-0.553l0.292-0.586l0.293-0.586l0.261-0.617l0.26-0.619l0.195-0.65l0.195-0.65l0.162-0.812
	l0.162-0.977l0.131-1.139l0.13-1.366l0.065-0.748l0.129-0.716l0.195-0.65l0.195-0.618l0.131-0.261l0.162-0.293l0.131-0.26
	l0.194-0.228l0.163-0.261l0.195-0.228l0.194-0.194l0.228-0.195l0.229-0.195l0.26-0.195l0.228-0.163l0.292-0.13l0.554-0.293
	l0.618-0.195l0.683-0.195l0.716-0.098l0.78-0.098h0.813h0.455l0.455,0.033l0.455,0.032l0.455,0.098l0.424,0.065l0.422,0.13
	l0.423,0.13l0.391,0.131l0.39,0.162l0.391,0.195l0.391,0.195l0.357,0.228l0.357,0.261l0.358,0.26l0.325,0.26l0.357,0.293
	l0.325,0.325l0.293,0.325l0.261,0.358l0.26,0.325l0.26,0.357l0.195,0.358l0.195,0.357l0.195,0.391l0.13,0.391l0.13,0.39l0.13,0.391
	l0.098,0.391l0.065,0.423l0.032,0.423l0.032,0.423l0.033,0.456l-0.033,0.422v0.456l-0.064,0.423l-0.065,0.455l-0.098,0.424
	l-0.097,0.422l-0.131,0.456l-0.13,0.423l-0.163,0.423l-0.162,0.423l-0.228,0.423l-0.195,0.423l-0.228,0.423l-0.26,0.391
	l-0.293,0.423l-0.293,0.423l-0.65,0.813l-0.716,0.812l-0.78,0.781l-0.878,0.781l-0.943,0.78l-1.04,0.78l-1.074,0.748l-1.203,0.749
	l-1.203,0.716l-1.269,0.683l-1.301,0.618l-1.301,0.586l-1.366,0.553l-1.398,0.455l-1.431,0.456l-1.431,0.39l-1.496,0.358
	l-1.529,0.293l-1.561,0.26l-1.561,0.228l-1.627,0.163l-1.658,0.098l-1.691,0.065l-1.724,0.032l-1.724-0.032l-1.724-0.065
	l-1.724-0.098l-1.724-0.163l-1.724-0.195l-1.691-0.227l-1.691-0.293l-1.691-0.326l-1.658-0.391l-1.691-0.422l-1.659-0.455
	l-1.659-0.521l-1.659-0.553l-1.659-0.586l-1.626-0.65l-1.626-0.684l-1.626-0.715l-1.593-0.781l-1.561-0.78l-1.529-0.847
	l-1.528-0.846l-1.464-0.91l-1.463-0.911l-1.431-0.976l-1.366-1.009l-1.366-1.009l-1.333-1.073l-1.333-1.106l-1.269-1.139
	l-1.236-1.17l-1.236-1.204l-1.203-1.236l-1.008-1.139l-1.008-1.139l-0.976-1.204l-0.943-1.203l-0.911-1.203l-0.878-1.27
	l-0.878-1.269l-0.813-1.301l-0.813-1.302l-0.781-1.334l-0.715-1.365l-0.715-1.367l-0.683-1.432l-0.65-1.398l-0.618-1.464
	l-0.618-1.464l-0.553-1.496l-0.52-1.464l-0.488-1.497l-0.456-1.496l-0.423-1.496l-0.39-1.496l-0.325-1.529l-0.325-1.496l-0.26-1.529
	l-0.26-1.529l-0.195-1.496l-0.163-1.529l-0.13-1.562l-0.065-1.528l-0.065-1.529l-0.033-1.562l0.033-1.041V85.72l0.065-1.009
	l0.033-1.041l0.097-0.976l0.065-1.009l0.098-0.976l0.13-0.977l0.13-0.943l0.163-0.943l0.163-0.943l0.195-0.911l0.195-0.911
	l0.228-0.911l0.228-0.878l0.26-0.846l0.26-0.878l0.26-0.846l0.325-0.813l0.292-0.813l0.325-0.813l0.358-0.781l0.358-0.781
	l0.39-0.781l0.39-0.748l0.39-0.748l0.423-0.749l0.456-0.715l0.455-0.684l0.456-0.715l0.488-0.683l0.52-0.651l0.521-0.65l0.521-0.651
	l0.52-0.618l0.553-0.585l0.553-0.553l0.553-0.553l0.585-0.521l0.585-0.521l0.585-0.488l0.585-0.455l0.618-0.456l0.585-0.423
	l0.618-0.39l0.65-0.391l0.618-0.358l0.651-0.358l0.683-0.325l0.65-0.293l0.683-0.26l0.683-0.261l0.683-0.26l0.683-0.195l0.716-0.195
	l0.715-0.195l0.748-0.163L48.393,50l0.748-0.098l0.748-0.098l0.78-0.065l0.748-0.065l0.781-0.032h0.781l1.17,0.032l1.106,0.065
	l1.105,0.098L57.434,50l1.041,0.195l1.008,0.26l1.008,0.293l0.943,0.358l0.943,0.358l0.911,0.456l0.878,0.455l0.878,0.553
	l0.813,0.553l0.813,0.618l0.781,0.651l0.748,0.715l0.748,0.749l0.683,0.748l0.618,0.813l0.585,0.813l0.521,0.846l0.488,0.878
	l0.455,0.911l0.39,0.911l0.358,0.943l0.292,0.976l0.26,1.008l0.228,1.041l0.163,1.074l0.097,1.073l0.065,1.106l0.032,1.139v0.585
	l-0.065,0.748l-0.065,0.878l-0.13,0.976l-0.065,0.292V74.171z"/>
</svg>
