<?xml version="1.0" encoding="utf-8"?>
<!-- Generator: Adobe Illustrator 15.0.2, SVG Export Plug-In  -->
<!DOCTYPE svg PUBLIC "-//W3C//DTD SVG 1.1//EN" "http://www.w3.org/Graphics/SVG/1.1/DTD/svg11.dtd" [
	<!ENTITY ns_flows "http://ns.adobe.com/Flows/1.0/">
]>
<svg version="1.1"
	 xmlns="http://www.w3.org/2000/svg" xmlns:xlink="http://www.w3.org/1999/xlink" xmlns:a="http://ns.adobe.com/AdobeSVGViewerExtensions/3.0/"
	 x="0px" y="0px" width="350px" height="350px" viewBox="-57.143 -74.95 200 200"
	 overflow="visible" enable-background="new -57.143 -74.95 200 200" xml:space="preserve">
<defs>
</defs>
<path fill="#030303" d="M35.869,0.956c1.488-0.671,3.137-1.076,4.776-0.924c0.615,0.088,1.328,0.241,1.695,0.793
	c0.361,0.664-0.564,1.476-1.19,1.073c-0.799-0.462-1.701-0.78-2.635-0.759C37.37,1.137,36.27,1.587,35.32,2.202
	c-1.473,0.967-2.665,2.296-3.721,3.692c-1.826,2.468-3.266,5.201-4.473,8.018c-0.654,1.503-1.164,3.062-1.722,4.602
	c-1.104,3.213-2.082,6.468-3.032,9.729c-0.131,0.467-0.221,0.994-0.011,1.452c0.257,0.527,1.011,0.627,1.458,0.291
	c0.651-0.439,0.885-1.236,1.381-1.814c0.099-0.041,0.199-0.082,0.298-0.125c0.118,0.102,0.308,0.234,0.211,0.418
	c-0.377,1.007-1.067,1.908-1.966,2.506c-0.746,0.49-1.735,0.719-2.583,0.361c-0.532-0.203-0.911-0.703-1.017-1.256
	c-0.148-0.781,0.038-1.578,0.29-2.317c1.47-4.34,2.918-8.691,4.678-12.925c1.704-4.068,3.781-8.102,6.979-11.208
	C33.188,2.533,34.453,1.594,35.869,0.956L35.869,0.956z"/>
<path fill="#030303" d="M21.004,8.961c1.254-0.59,2.761-0.708,4.058-0.184c0.588,0.246,1.17,0.653,1.376,1.286
	c0.135,0.416,0.089,0.921-0.237,1.238c-0.381,0.235-0.917,0.373-1.316,0.103c-0.369-0.253-0.407-0.732-0.586-1.105
	c-0.226-0.528-0.651-1.051-1.256-1.125c-0.617-0.069-1.251,0.12-1.751,0.484c-1.075,0.753-1.789,1.91-2.303,3.095
	c-0.71,1.709-1.184,3.506-1.756,5.265c1.269-0.002,2.539,0,3.809-0.002c0.604-0.061,0.55,1.036-0.002,1.051
	c-1.403,0.018-2.808,0.01-4.212,0.003c-1.77,5.765-3.492,11.545-5.347,17.283c-0.829,2.211-2.034,4.365-3.881,5.884
	c-1.256,1.05-2.907,1.629-4.546,1.518c-0.778-0.112-1.569-0.262-2.27-0.635c-0.292-0.16-0.574-0.376-0.712-0.687
	c-0.138-0.36-0.077-0.794,0.168-1.093c0.272-0.291,0.756-0.352,1.098-0.148c0.698,0.384,0.983,1.251,1.737,1.555
	c0.423,0.175,0.887,0.235,1.342,0.25c0.553-0.022,1.062-0.298,1.487-0.635c0.952-0.779,1.604-1.847,2.178-2.918
	c1.368-2.637,2.104-5.529,3.02-8.338c1.033-3.311,2.07-6.623,3.125-9.928c0.177-0.591,0.21-1.356-0.309-1.788
	c-0.464-0.387-1.105-0.293-1.665-0.321c-0.527-0.039-0.558-1.035,0.005-1.047c0.987-0.015,1.973-0.001,2.959-0.005
	c0.573-1.949,1.289-3.874,2.338-5.621C18.406,11.001,19.508,9.683,21.004,8.961L21.004,8.961z"/>
<path fill="#030303" d="M52.736,17.96c0.529-0.312,1.23-0.442,1.782-0.114c0.597,0.299,0.884,0.982,0.893,1.621
	c-0.005,0.872-0.257,1.716-0.524,2.538c-0.597,1.781-1.363,3.498-2.045,5.247c-0.271,0.656-0.51,1.358-0.459,2.08
	c0.029,0.422,0.346,0.859,0.803,0.85c0.787,0.027,1.473-0.451,2.086-0.89c1.312-1.026,2.43-2.339,3.133-3.855
	c0.578-1.554,1.107-3.126,1.663-4.689c0.292-0.833,0.577-1.736,1.278-2.325c0.525-0.454,1.252-0.531,1.919-0.537
	c0.164-0.013,0.306,0.087,0.413,0.202c-0.145,0.214-0.4,0.32-0.562,0.521c-0.748,0.865-1.01,2.006-1.365,3.064
	c-0.547,1.711-1.159,3.4-1.657,5.127c-0.198,0.786-0.416,1.586-0.382,2.404c0.028,0.313,0.059,0.724,0.381,0.881
	c0.461,0.079,0.939-0.102,1.268-0.427c0.405-0.396,0.636-0.922,0.953-1.381c0.102-0.201,0.452-0.247,0.537-0.011
	c0.098,0.155-0.047,0.325-0.093,0.474c-0.566,1.223-1.593,2.318-2.929,2.668c-0.461,0.087-0.976,0.133-1.404-0.098
	c-0.452-0.238-0.693-0.742-0.762-1.23c-0.114-0.791,0.009-1.59,0.18-2.362c-0.837,0.955-1.646,1.954-2.693,2.694
	c-0.895,0.65-1.995,1.158-3.127,0.986c-0.676-0.064-1.337-0.479-1.577-1.131c-0.308-0.807-0.108-1.686,0.126-2.482
	c0.648-2.127,1.637-4.13,2.422-6.208c0.23-0.686,0.547-1.382,0.5-2.12c-0.039-0.392-0.493-0.544-0.824-0.408
	c-0.914,0.312-1.431,1.187-2.092,1.827c-0.295,1.115-1.754,1.738-2.727,1.078c-0.748-0.454-0.774-1.658-0.043-2.144
	c0.32-0.336,0.936-0.227,1.151-0.661c-0.001-0.382-0.411-0.584-0.744-0.596c-0.556,0.002-1.069,0.265-1.516,0.575
	c-0.655,0.463-1.212,1.049-1.722,1.666c-1.09,1.357-1.953,2.899-2.525,4.544c-0.622,1.773-1.236,3.547-1.889,5.307
	c-0.1,0.316-0.456,0.382-0.733,0.461c-0.526,0.121-1.043,0.307-1.585,0.353c-0.013-0.342,0.154-0.649,0.267-0.961
	c1.003-2.705,2.001-5.411,3.001-8.117c0.184-0.538,0.431-1.057,0.529-1.621c0.088-0.521,0.201-1.105-0.104-1.58
	c-0.62-0.222-1.234,0.183-1.638,0.625c-0.349,0.328-0.57,0.766-0.909,1.098c-0.239,0.194-0.579-0.084-0.393-0.351
	c0.429-0.686,0.95-1.318,1.539-1.872c0.578-0.524,1.338-1.047,2.16-0.855c0.524,0.099,0.888,0.574,1.002,1.073
	c0.196,0.899,0.039,1.827-0.173,2.707c0.904-1.106,1.729-2.335,2.958-3.115c0.749-0.487,1.702-0.741,2.574-0.459
	c0.843,0.231,1.577,0.97,1.612,1.874C51.251,19.159,51.912,18.444,52.736,17.96L52.736,17.96z"/>
<path fill="#030303" d="M32.738,18.244c1.116-0.419,2.402-0.681,3.543-0.204c1.2,0.446,2.103,1.551,2.337,2.804
	c0.372,1.849-0.178,3.723-0.822,5.444c-0.786,1.72-1.976,3.303-3.566,4.351c-1.332,0.883-3.061,1.245-4.603,0.761
	c-1.019-0.314-1.813-1.152-2.19-2.134c-0.504-1.294-0.505-2.737-0.214-4.082c0.216-1.064,0.703-2.043,1.187-3.005
	c0.285-0.526,0.562-1.093,1.065-1.448c0.14,0.549,0.333,1.117,0.756,1.515c0.142,0.165,0.406,0.341,0.29,0.591
	c-0.702,1.633-1.379,3.325-1.477,5.119c-0.017,0.673,0.046,1.378,0.375,1.979c0.269,0.497,0.79,0.866,1.365,0.881
	c0.924,0.056,1.792-0.438,2.416-1.089c0.621-0.611,1.065-1.368,1.477-2.129c0.646-1.262,1.149-2.591,1.571-3.943
	c0.276-0.983,0.475-2,0.455-3.025c-0.035-0.623-0.191-1.298-0.673-1.731c-0.497-0.428-1.217-0.502-1.835-0.352
	c-0.496,0.137-1.025,0.385-1.257,0.874c-0.209,0.548,0.28,1.075,0.112,1.63c-0.149,0.887-1.217,1.436-2.029,1.053
	c-0.769-0.307-1.144-1.321-0.712-2.04C30.824,19.148,31.805,18.642,32.738,18.244L32.738,18.244z"/>
<path fill="#030303" d="M69.985,17.864c1.224-0.148,2.591-0.194,3.659,0.523c1.161,0.779,1.055,2.71-0.068,3.471
	c-0.525,0.34-1.281,0.239-1.676-0.256c-0.406-0.449-0.465-1.208-0.05-1.669c0.204-0.259,0.529-0.418,0.677-0.722
	c0.055-0.291-0.215-0.525-0.466-0.613c-0.878-0.325-1.876-0.184-2.702,0.222c-0.54,0.268-1.025,0.754-1.103,1.375
	c-0.111,0.802,0.259,1.588,0.751,2.2c1.006,1.251,2.445,2.137,3.213,3.579c0.662,1.225,0.439,2.794-0.374,3.892
	c-0.649,0.895-1.707,1.405-2.778,1.571c-1.213,0.186-2.48,0.136-3.648-0.249c-0.779-0.255-1.52-0.792-1.778-1.598
	c-0.192-0.646-0.167-1.373,0.111-1.991c0.3-0.66,1.133-1.086,1.826-0.803c0.617,0.256,1.017,1.02,0.77,1.658
	c-0.139,0.43-0.627,0.636-0.73,1.08c-0.051,0.358,0.179,0.68,0.462,0.874c0.53,0.36,1.201,0.476,1.832,0.39
	c0.746-0.09,1.519-0.354,2.033-0.926c0.505-0.569,0.691-1.385,0.564-2.127c-0.17-0.707-0.666-1.27-1.156-1.781
	c-0.963-0.979-2.105-1.812-2.838-2.994c-0.48-0.766-0.598-1.788-0.135-2.589C66.991,18.938,68.462,18.032,69.985,17.864
	L69.985,17.864z"/>
</svg>
